#!OML:ASF I:\Random Stuff\random\construction\7_22_03\Session 2\subj1.ASF
:FULLY-SPECIFIED
:DEGREES
530
root -1.98684 17.843 0.581616 -164.779 84.0084 -172.349
lowerback 0.223116 -1.26181 1.89912
upperback -0.320045 -1.55977 4.75236
thorax -0.373076 -0.737916 3.83145
lowerneck -12.794 -13.4155 -12.26
upperneck 30.8156 -18.8256 9.78714
head 15.0727 -8.05619 2.70324
rclavicle 3.37934e-015 -6.04305e-014
rhumerus -25.0723 -32.9042 -62.9034
rradius 37.9823
rwrist -18.9725
rhand -35.1994 23.4419
rfingers 7.12502
rthumb -8.33721 -6.37359
lclavicle 3.37934e-015 -6.04305e-014
lhumerus -33.6977 -2.61867 90.446
lradius 32.9316
lwrist 34.7414
lhand -19.1529 58.86
lfingers 7.12502
lthumb 7.15753 88.719
rfemur 0.0763789 18.6314 19.3523
rtibia -1.59028e-014
rfoot -1.98732 -33.8614
rtoes -1.69259
lfemur -9.00444 -21.5002 -13.693
ltibia 12.9
lfoot -10.7515 17.4539
ltoes -28.8288
531
root -1.98981 17.8448 0.581353 -164.788 84.1158 -172.38
lowerback 0.250562 -1.23299 2.01574
upperback -0.350468 -1.51577 4.77349
thorax -0.424654 -0.71516 3.78862
lowerneck -12.5416 -13.383 -12.188
upperneck 30.8284 -18.8147 9.81002
head 15.015 -8.04771 2.72236
rclavicle -3.45885e-014 5.24792e-014
rhumerus -24.922 -33.1868 -62.9303
rradius 37.983
rwrist -18.3413
rhand -34.9427 22.5601
rfingers 7.12502
rthumb -8.08951 -7.26503
lclavicle -3.45885e-014 5.24792e-014
lhumerus -33.8406 -2.86514 90.6187
lradius 32.8069
lwrist 34.801
lhand -19.1407 58.8829
lfingers 7.12502
lthumb 7.1693 88.7414
rfemur 0.0122922 18.7336 19.302
rtibia 4.77083e-015
rfoot -1.99355 -33.8733
rtoes -1.53145
lfemur -8.98361 -21.4327 -13.7174
ltibia 12.8331
lfoot -10.7347 17.4772
ltoes -28.3389
532
root -1.99233 17.8457 0.581658 -164.933 84.19 -172.546
lowerback 0.293817 -1.26865 2.04527
upperback -0.350661 -1.55812 4.84075
thorax -0.445968 -0.735241 3.84325
lowerneck -12.5744 -13.3283 -12.1219
upperneck 30.9596 -18.7332 9.74588
head 15.0538 -8.00552 2.70499
rclavicle 4.57205e-015 -6.36111e-015
rhumerus -24.5868 -33.1872 -63.1227
rradius 38.0114
rwrist -17.8528
rhand -34.4183 21.5146
rfingers 7.12502
rthumb -7.5833 -8.32947
lclavicle 4.57205e-015 -6.36111e-015
lhumerus -33.8783 -2.82339 90.7471
lradius 32.6929
lwrist 34.805
lhand -19.1943 58.9328
lfingers 7.12502
lthumb 7.11757 88.7931
rfemur -0.0454141 18.8004 19.2516
rtibia 4.77083e-015
rfoot -1.84245 -33.8692
rtoes -2.00832
lfemur -8.981 -21.3328 -13.7504
ltibia 12.7818
lfoot -10.6398 17.4118
ltoes -27.8742
533
root -1.99413 17.8464 0.583515 -165.154 84.2487 -172.805
lowerback 0.329806 -1.29486 2.0455
upperback -0.344887 -1.58889 4.90709
thorax -0.45682 -0.749576 3.91319
lowerneck -12.7745 -13.327 -12.1116
upperneck 31.1108 -18.7009 9.65089
head 15.1497 -7.98762 2.66097
rclavicle -1.64991e-014 -3.18055e-015
rhumerus -24.2168 -33.1711 -63.2867
rradius 37.9807
rwrist -17.4751
rhand -33.5943 20.4756
rfingers 7.12502
rthumb -6.78789 -9.39558
lclavicle -1.64991e-014 -3.18055e-015
lhumerus -33.9486 -2.87968 90.8944
lradius 32.7041
lwrist 34.9158
lhand -19.1511 58.9984
lfingers 7.12502
lthumb 7.15927 88.8573
rfemur -0.104314 18.8501 19.1977
rtibia -1.11319e-014
rfoot -1.8152 -33.871
rtoes -2.10642
lfemur -9.00397 -21.179 -13.7789
ltibia 12.7435
lfoot -10.5584 17.3448
ltoes -28.0178
534
root -1.99611 17.847 0.586191 -165.334 84.301 -173.033
lowerback 0.349542 -1.2677 2.07393
upperback -0.343681 -1.54966 4.94159
thorax -0.468607 -0.729249 3.93333
lowerneck -12.7958 -13.3681 -12.0681
upperneck 31.0626 -18.7509 9.60135
head 15.1263 -8.01149 2.62114
rclavicle -1.47101e-014 1.27222e-014
rhumerus -23.9981 -33.2905 -63.3099
rradius 37.944
rwrist -17.0687
rhand -32.5906 19.2913
rfingers 7.12502
rthumb -5.81895 -10.6088
lclavicle -1.47101e-014 1.27222e-014
lhumerus -34.0474 -3.07605 91.0657
lradius 32.8424
lwrist 35.0759
lhand -19.0763 59.0668
lfingers 7.12502
lthumb 7.23151 88.9232
rfemur -0.168827 18.8946 19.1485
rtibia -1.59028e-015
rfoot -1.89203 -33.8862
rtoes -1.65222
lfemur -9.04043 -21.0524 -13.794
ltibia 12.7106
lfoot -10.5448 17.3767
ltoes -28.5749
535
root -1.99877 17.8472 0.589308 -165.111 84.3335 -172.852
lowerback 0.357939 -1.2376 2.14014
upperback -0.345887 -1.50699 4.95971
thorax -0.479174 -0.707439 3.91485
lowerneck -12.6197 -13.3689 -11.9936
upperneck 30.8704 -18.7966 9.69542
head 15.0075 -8.02585 2.64782
rclavicle 7.35503e-015 -1.27222e-014
rhumerus -23.8575 -33.4849 -63.3109
rradius 37.8557
rwrist -16.5966
rhand -31.6639 18.0473
rfingers 7.12502
rthumb -4.92423 -11.8755
lclavicle 7.35503e-015 -1.27222e-014
lhumerus -34.0888 -3.14784 91.1578
lradius 32.9361
lwrist 35.0445
lhand -18.8991 59.1361
lfingers 7.12502
lthumb 7.40252 88.9866
rfemur -0.238651 18.9308 19.1489
rtibia -3.18055e-015
rfoot -1.88003 -33.8847
rtoes -1.54474
lfemur -9.08547 -21.0306 -13.7557
ltibia 12.6893
lfoot -10.5229 17.4279
ltoes -28.6956
536
root -2.00115 17.8477 0.593527 -164.787 84.3581 -172.57
lowerback 0.356196 -1.24719 2.16446
upperback -0.343428 -1.51817 4.99519
thorax -0.474811 -0.712439 3.93813
lowerneck -12.6652 -13.3443 -11.93
upperneck 30.8696 -18.7785 9.71325
head 15.0089 -8.00669 2.64707
rclavicle -1.43125e-014 4.13472e-014
rhumerus -23.6455 -33.62 -63.3554
rradius 37.6694
rwrist -16.3266
rhand -30.7519 17.057
rfingers 7.12502
rthumb -4.04356 -12.8844
lclavicle -1.43125e-014 4.13472e-014
lhumerus -34.1215 -3.19909 91.2543
lradius 33.0439
lwrist 35.1888
lhand -18.9247 59.0696
lfingers 7.12502
lthumb 7.37781 88.921
rfemur -0.312035 18.962 19.1607
rtibia 1.59028e-015
rfoot -1.86209 -33.8628
rtoes -1.63995
lfemur -9.14608 -21.1641 -13.6892
ltibia 12.7035
lfoot -10.5208 17.5595
ltoes -28.4404
537
root -2.00265 17.8482 0.598352 -164.515 84.3786 -172.337
lowerback 0.34806 -1.26872 2.15199
upperback -0.338077 -1.54557 5.05039
thorax -0.461481 -0.725276 4.00261
lowerneck -12.9703 -13.3416 -11.8904
upperneck 31.0799 -18.7473 9.60537
head 15.1502 -7.98046 2.58719
rclavicle -2.64384e-014 -2.22639e-014
rhumerus -23.4199 -33.7737 -63.3625
rradius 37.4387
rwrist -16.3201
rhand -29.7109 16.3837
rfingers 7.12502
rthumb -3.0383 -13.5744
lclavicle -2.64384e-014 -2.22639e-014
lhumerus -34.1531 -3.29252 91.4071
lradius 33.2079
lwrist 35.5255
lhand -19.098 58.7751
lfingers 7.12502
lthumb 7.21051 88.6322
rfemur -0.375644 18.9882 19.1714
rtibia -3.18055e-015
rfoot -1.87029 -33.8521
rtoes -1.49448
lfemur -9.20224 -21.2942 -13.6259
ltibia 12.7345
lfoot -10.564 17.7004
ltoes -28.2704
538
root -2.00394 17.8487 0.602992 -164.059 84.386 -171.907
lowerback 0.354199 -1.28682 2.17439
upperback -0.341477 -1.56699 5.09471
thorax -0.466696 -0.735203 4.03655
lowerneck -12.3961 -13.2801 -12.0691
upperneck 30.5541 -18.7311 9.98868
head 14.853 -7.99374 2.80224
rclavicle 2.28602e-014 -4.77083e-015
rhumerus -23.2575 -33.997 -63.333
rradius 37.1727
rwrist -16.4337
rhand -28.7989 15.8883
rfingers 7.12502
rthumb -2.15747 -14.0806
lclavicle 2.28602e-014 -4.77083e-015
lhumerus -34.1791 -3.38312 91.5348
lradius 33.3908
lwrist 35.765
lhand -19.1319 58.6051
lfingers 7.12502
lthumb 7.17781 88.4633
rfemur -0.416272 19.0076 19.2131
rtibia 0
rfoot -1.99782 -33.8543
rtoes -0.851726
lfemur -9.2419 -21.3066 -13.5527
ltibia 12.7589
lfoot -10.6251 17.6983
ltoes -27.9003
539
root -2.00658 17.8484 0.606799 -163.773 84.4012 -171.625
lowerback 0.415778 -1.30224 2.21807
upperback -0.35138 -1.58261 5.10362
thorax -0.511598 -0.74276 4.02298
lowerneck -12.6375 -13.2554 -11.9841
upperneck 30.6739 -18.672 9.86938
head 14.9252 -7.95963 2.74053
rclavicle 1.96797e-014 -6.36111e-015
rhumerus -23.1759 -34.2446 -63.2722
rradius 36.8885
rwrist -16.6391
rhand -27.9654 15.5107
rfingers 7.12502
rthumb -1.35246 -14.4647
lclavicle 1.96797e-014 -6.36111e-015
lhumerus -34.2642 -3.67855 91.6581
lradius 33.657
lwrist 36.0114
lhand -18.9267 58.4716
lfingers 7.12502
lthumb 7.37588 88.323
rfemur -0.436956 19.0309 19.2447
rtibia -1.90833e-014
rfoot -2.02698 -33.8517
rtoes -0.635765
lfemur -9.27359 -21.3356 -13.5047
ltibia 12.7983
lfoot -10.7034 17.7198
ltoes -27.4531
540
root -2.01012 17.8466 0.610405 -163.61 84.4232 -171.452
lowerback 0.506218 -1.30296 2.2568
upperback -0.356507 -1.57801 5.09525
thorax -0.569221 -0.740503 3.99469
lowerneck -12.7437 -13.2481 -11.9029
upperneck 30.7099 -18.6423 9.76026
head 14.9351 -7.94675 2.68445
rclavicle 2.98177e-015 3.33958e-014
rhumerus -23.1331 -34.6477 -63.1578
rradius 36.5553
rwrist -16.8456
rhand -27.1467 15.1627
rfingers 7.12502
rthumb -0.561767 -14.8163
lclavicle 2.98177e-015 3.33958e-014
lhumerus -34.3415 -4.10975 91.8056
lradius 33.9474
lwrist 36.3478
lhand -18.6751 58.2316
lfingers 7.12502
lthumb 7.61872 88.0744
rfemur -0.445314 19.0582 19.2719
rtibia -3.18055e-015
rfoot -1.89684 -33.8485
rtoes -1.07799
lfemur -9.29966 -21.4086 -13.4705
ltibia 12.8519
lfoot -10.7598 17.8397
ltoes -27.5109
541
root -2.01226 17.8456 0.614268 -163.228 84.4437 -171.067
lowerback 0.555361 -1.27463 2.30274
upperback -0.360451 -1.53643 5.09193
thorax -0.604429 -0.71963 3.96622
lowerneck -12.627 -13.2387 -11.96
upperneck 30.6182 -18.6326 9.81963
head 14.881 -7.95066 2.72511
rclavicle 1.09332e-014 2.22639e-014
rhumerus -23.1438 -35.1684 -62.9886
rradius 36.1849
rwrist -17.0808
rhand -26.6608 15.0026
rfingers 7.12502
rthumb -0.0924413 -14.9771
lclavicle 1.09332e-014 2.22639e-014
lhumerus -34.3268 -4.47712 91.9765
lradius 34.2
lwrist 36.7307
lhand -18.619 58.3012
lfingers 7.12502
lthumb 7.67289 88.142
rfemur -0.454837 19.09 19.3186
rtibia -7.95139e-015
rfoot -1.85572 -33.8435
rtoes -1.28178
lfemur -9.31841 -21.5056 -13.413
ltibia 12.8897
lfoot -10.8048 18.0372
ltoes -27.9353
